<?xml version="1.0" encoding="UTF-8"?>
<svg width="24px" height="34px" viewBox="0 0 24 34" version="1.1" xmlns="http://www.w3.org/2000/svg" xmlns:xlink="http://www.w3.org/1999/xlink">
    <title>AppActive</title>
    <defs>
        <polygon id="path-1" points="0 0 24 0 24 34 0 34"></polygon>
    </defs>
    <g id="页面-1" stroke="none" stroke-width="1" fill="none" fill-rule="evenodd">
        <g id="生态图" transform="translate(-401.000000, -440.000000)">
            <g id="AppActive" transform="translate(401.000000, 440.000000)">
                <mask id="mask-2" fill="white">
                    <use xlink:href="#path-1"></use>
                </mask>
                <g id="Clip-2"></g>
                <path d="M14.9555579,28.107771 L15.4770704,28.107771 C15.621207,28.107771 15.7289455,28.1379408 15.8002858,28.1979959 C15.8716262,28.258051 15.907442,28.3488452 15.907442,28.4703785 C15.907442,28.5961811 15.8730821,28.6889676 15.8046536,28.7490227 C15.7359339,28.8090777 15.6296514,28.8392476 15.4855148,28.8392476 L14.9555579,28.8392476 L14.9555579,28.107771 Z M14.9555579,29.4545987 L15.6063566,29.4545987 C15.9569434,29.4545987 16.2254161,29.3680739 16.4117746,29.1947395 C16.5984242,29.0211206 16.6918946,28.7723616 16.6918946,28.4476088 C16.6918946,28.1382255 16.5969683,27.9017052 16.407698,27.738048 C16.2181365,27.5741062 15.9426754,27.4924199 15.5810235,27.4924199 L14.1521782,27.4924199 L14.1521782,30.5446981 L14.9555579,30.5446981 L14.9555579,29.4545987 Z M14.2593343,31.4825251 L15.1541461,31.4825251 L15.1541461,33.9151829 L15.953158,33.9151829 L15.953158,31.4825251 L16.8479698,31.4825251 L16.8479698,30.8629046 L14.2593343,30.8629046 L14.2593343,31.4825251 Z M16.4542876,20.9839859 C16.4542876,22.0063454 16.0469196,22.9675113 15.3073095,23.6904493 L14.9980709,23.992717 L14.9980709,22.7116368 C14.9980709,21.1965979 15.5114302,19.7595453 16.4542876,18.5866211 L16.4542876,20.9839859 Z M23.3079113,12.6963845 C23.7062525,12.593067 24.0000582,12.2392828 24.0000582,11.8174741 C24.0000582,11.3145483 23.5830812,10.9069707 23.0685571,10.9069707 C22.5543242,10.9069707 22.1373472,11.3145483 22.1373472,11.8174741 C22.1373472,12.2102514 22.3924253,12.5441121 22.7491271,12.6716224 C22.4372678,16.1104163 20.2600768,19.1470404 17.0130718,20.5937701 L17.0130718,17.9692776 L18.1818888,16.826808 C19.7042045,15.3388081 20.5425264,13.3606905 20.5425264,11.2564856 L20.5425264,8.41995027 C21.4047254,8.16606812 22.0328117,7.38421357 22.0328117,6.45862528 C22.0328117,5.32754045 21.0943221,4.41020618 19.9371525,4.41020618 C18.7796918,4.41020618 17.8412022,5.32754045 17.8412022,6.45862528 C17.8412022,7.38421357 18.4695797,8.16606812 19.3317787,8.41995027 L19.3317787,11.2564856 C19.3317787,13.0444763 18.6192488,14.7254493 17.3255134,15.9900215 L17.0130718,16.2954201 L17.0130718,12.1245804 C17.7797622,11.9950777 18.3635883,11.3430105 18.3635883,10.556602 C18.3635883,9.67655307 17.6338784,8.96329223 16.7335341,8.96329223 C15.8334809,8.96329223 15.1037711,9.67655307 15.1037711,10.556602 C15.1037711,11.3430105 15.687306,11.9950777 16.4542876,12.1245804 L16.4542876,16.8418929 L16.1479609,17.1410298 C14.6256452,18.6290297 13.7873233,20.607432 13.7873233,22.7116368 L13.7873233,26.1490076 L14.9980709,26.1490076 L14.9980709,24.7651791 L15.7024477,24.0766803 C16.4965094,23.3005182 16.9551259,22.2841357 17.0078305,21.1951748 L17.0940212,21.1581741 C20.6164874,19.6542354 22.9814928,16.3930452 23.3079113,12.6963845 L23.3079113,12.6963845 Z M12.7096472,31.4369857 C12.8764963,31.4369857 13.0110238,31.4739865 13.1135209,31.5477034 C13.2160181,31.6217049 13.2856113,31.7318533 13.3223007,31.8781486 L14.0726847,31.8781486 C14.0389072,31.5411571 13.9020502,31.2753208 13.662696,31.0803553 C13.4230507,30.8856743 13.1138121,30.7883339 12.7352715,30.7883339 C12.2574367,30.7883339 11.8762755,30.9354831 11.5914964,31.2297814 C11.3067174,31.5240798 11.1643279,31.9182802 11.1643279,32.4129519 C11.1643279,32.8879848 11.3040967,33.2713696 11.5839256,33.5628218 C11.8637545,33.8545585 12.2321036,34 12.6883907,34 C13.0701344,34 13.3814112,33.8992441 13.6225125,33.6977322 C13.8633226,33.4959358 14.0106622,33.2121684 14.0642403,32.8458609 L13.3223007,32.8458609 C13.2955116,33.0089488 13.2279567,33.1333283 13.119927,33.2189993 C13.0118973,33.3046703 12.8680519,33.3473635 12.6883907,33.3473635 C12.4653429,33.3473635 12.2920878,33.2648233 12.1692077,33.099743 C12.0460364,32.9346627 11.9845963,32.702981 11.9845963,32.4046979 C11.9845963,32.1047071 12.0498218,31.8687561 12.1796903,31.695991 C12.3098501,31.5232259 12.4863082,31.4369857 12.7096472,31.4369857 L12.7096472,31.4369857 Z M22.2494534,32.6386566 L23.6867431,32.6386566 L23.6867431,32.0275748 L22.2494534,32.0275748 L22.2494534,31.4887868 L23.8224353,31.4887868 L23.8224353,30.8629046 L21.4501503,30.8629046 L21.4501503,33.9151829 L23.8733927,33.9151829 L23.8733927,33.2915777 L22.2494534,33.2915777 L22.2494534,32.6386566 Z M17.2186485,33.9151829 L18.0159133,33.9151829 L18.0159133,30.8629046 L17.2186485,30.8629046 L17.2186485,33.9151829 Z M19.8876511,32.481261 C19.8468852,32.6178792 19.815146,32.7285969 19.7924336,32.8128448 C19.7697211,32.8970927 19.7507941,32.9702403 19.7350701,33.0325724 C19.7068251,32.9053467 19.6660592,32.7479511 19.61219,32.5601011 C19.5953012,32.5006153 19.5833627,32.4579221 19.576083,32.4314523 L19.1372671,30.8629046 L18.2893361,30.8629046 L19.362062,33.9151829 L20.1104077,33.9151829 L21.1895397,30.8629046 L20.3477235,30.8629046 L19.8876511,32.481261 Z M2.57145561,33.9151829 L4.47435023,33.9151829 L8.69478706,29.4884687 L8.69478706,31.138418 L7.60488123,31.138418 L6.19030402,32.6221486 L8.69478706,32.6221486 L8.69478706,33.9151829 L10.212735,33.9151829 L10.212735,27.4924199 L8.69478706,27.4924199 L2.57145561,33.9151829 Z M7.54577066,18.5866211 C8.48862801,19.7595453 9.00169615,21.1968826 9.00169615,22.7116368 L9.00169615,23.992717 L8.69274876,23.6904493 C7.95313861,22.9675113 7.54577066,22.0063454 7.54577066,20.9839859 L7.54577066,18.5866211 Z M6.906037,21.1581741 L6.99222778,21.1951748 C7.04493229,22.2841357 7.50354882,23.3005182 8.29761058,24.0766803 L9.00169615,24.7651791 L9.00169615,26.1490076 L10.212735,26.1490076 L10.212735,22.7116368 C10.212735,20.607432 9.37441308,18.6290297 7.85209738,17.1410298 L7.54577066,16.8418929 L7.54577066,14.7877814 C8.31275221,14.6582787 8.89628715,14.0062114 8.89628715,13.2198029 C8.89628715,12.3397541 8.16657729,11.6264932 7.26652415,11.6264932 C6.36617982,11.6264932 5.63646996,12.3397541 5.63646996,13.2198029 C5.63646996,14.0062114 6.22029609,14.6582787 6.98698645,14.7877814 L6.98698645,16.2957047 L6.67425366,15.9900215 C5.38080945,14.7257339 4.66857069,13.0444763 4.66857069,11.2564856 L4.66857069,10.1666709 C5.53047859,9.9127887 6.15856485,9.13093414 6.15856485,8.20534586 C6.15856485,7.07397641 5.22036646,6.15692676 4.06290569,6.15692676 C2.90544492,6.15692676 1.96724653,7.07397641 1.96724653,8.20534586 C1.96724653,9.13093414 2.59533279,9.9127887 3.45753187,10.1666709 L3.45753187,11.2564856 C3.45753187,13.3606905 4.29585377,15.3390927 5.81816946,16.826808 L6.98698645,17.9692776 L6.98698645,20.5937701 C3.73998141,19.1470404 1.56279043,16.1104163 1.25093119,12.6716224 C1.60763293,12.5441121 1.86271108,12.2102514 1.86271108,11.8174741 C1.86271108,11.3145483 1.44573402,10.9069707 0.931501132,10.9069707 C0.416977062,10.9069707 0,11.3145483 0,11.8174741 C0,12.2392828 0.293805765,12.593067 0.692146981,12.6963845 C1.01856548,16.3930452 3.38357085,19.6542354 6.906037,21.1581741 L6.906037,21.1581741 Z M11.1617072,5.33721758 L11.1617072,26.1490076 L12.838351,26.1490076 L12.838351,5.33721758 C13.9719346,4.98912579 14.7942413,3.95395833 14.7942413,2.73122546 C14.7942413,1.22273287 13.5433101,0 12.0000291,0 C10.4567481,0 9.20581691,1.22273287 9.20581691,2.73122546 C9.20581691,3.95395833 10.0281236,4.98912579 11.1617072,5.33721758 L11.1617072,5.33721758 Z M11.9642134,28.107771 L12.4857259,28.107771 C12.6298625,28.107771 12.737601,28.1379408 12.8089413,28.1979959 C12.8805729,28.258051 12.9160974,28.3488452 12.9160974,28.4703785 C12.9160974,28.5961811 12.8817376,28.6889676 12.8133091,28.7490227 C12.7445894,28.8090777 12.6383069,28.8392476 12.4941702,28.8392476 L11.9642134,28.8392476 L11.9642134,28.107771 Z M11.9642134,29.4545987 L12.615012,29.4545987 C12.9655989,29.4545987 13.2340716,29.3680739 13.4207212,29.1947395 C13.6070797,29.0211206 13.7005501,28.7723616 13.7005501,28.4476088 C13.7005501,28.1382255 13.6059149,27.9017052 13.4163534,27.738048 C13.2270831,27.5741062 12.9513308,27.4924199 12.5896789,27.4924199 L11.1608337,27.4924199 L11.1608337,30.5446981 L11.9642134,30.5446981 L11.9642134,29.4545987 Z" id="Fill-1" fill="#3C78FF" mask="url(#mask-2)"></path>
            </g>
        </g>
    </g>
</svg>