<?xml version="1.0" encoding="UTF-8"?>
<svg width="31px" height="18px" viewBox="0 0 31 18" version="1.1" xmlns="http://www.w3.org/2000/svg" xmlns:xlink="http://www.w3.org/1999/xlink">
    <title>ChaosBlade</title>
    <defs>
        <linearGradient x1="50%" y1="0%" x2="50%" y2="100%" id="linearGradient-1">
            <stop stop-color="#4F0067" offset="0%"></stop>
            <stop stop-color="#F80664" offset="100%"></stop>
        </linearGradient>
        <linearGradient x1="50%" y1="0%" x2="50%" y2="100%" id="linearGradient-2">
            <stop stop-color="#4F0067" offset="0%"></stop>
            <stop stop-color="#F80664" offset="100%"></stop>
        </linearGradient>
    </defs>
    <g id="页面-1" stroke="none" stroke-width="1" fill="none" fill-rule="evenodd">
        <g id="生态图" transform="translate(-328.000000, -489.000000)">
            <g id="ChaosBlade" transform="translate(328.000000, 489.000000)">
                <polygon id="Fill-1" fill="#FDB4D0" points="20.2375007 16.2942316 6.16893673 16.2942316 2.15744737 8.98448138 20.2375007 8.98448138"></polygon>
                <path d="M9.22950426,0.0119989334 C6.55970356,0.0263976535 4.51123248,1.2070927 3.13680023,3.48848991 L3.13680023,3.48848991 C2.09459564,5.21713625 1.11069063,6.9817794 0.0900488985,8.72402453 L0.0900488985,8.72402453 C-0.0289461075,8.92560661 -0.0305433559,9.06799396 0.0884516501,9.2711759 L0.0884516501,9.2711759 C1.1130865,11.0270198 2.09379702,12.8076615 3.14718234,14.5451071 L3.14718234,14.5451071 C4.51043385,16.7921074 6.53015446,17.9768021 9.17679507,17.988801 L9.17679507,17.988801 C13.4662057,18.0087992 17.7564149,17.9944005 22.0458255,17.9944005 L22.0458255,17.9944005 C22.1927723,17.9944005 22.3413164,17.9944005 22.5226041,17.9944005 L22.5226041,17.9944005 C20.2417334,14.9562706 20.2968384,11.9637366 22.5002426,8.96160341 L22.5002426,8.96160341 C20.5404188,6.8073949 20.0476677,2.92533997 22.5361807,0.00559950227 L22.5361807,0.00559950227 C22.3317329,0.00559950227 22.1959668,0.00559950227 22.0602007,0.00559950227 L22.0602007,0.00559950227 C19.4934225,0.00559950227 16.9274429,0 14.3614634,0 L14.3614634,0 C12.6508103,0 10.9401573,0.00239978669 9.22950426,0.0119989334 M9.2702341,15.5482179 C7.49569112,15.5410186 6.1388286,14.7642876 5.23478601,13.2380233 L5.23478601,13.2380233 C4.45053704,11.9149409 3.6934413,10.57506 2.9147827,9.24957782 L2.9147827,9.24957782 C2.80457256,9.0607946 2.80057944,8.91760732 2.91238683,8.72802418 L2.91238683,8.72802418 C3.68864955,7.40094214 4.4425508,6.06106124 5.22520252,4.73877878 L5.22520252,4.73877878 C6.12844649,3.21251444 7.49329525,2.43658341 9.26065061,2.42458448 L9.26065061,2.42458448 C12.2387203,2.40458626 15.2183872,2.41898498 18.1972554,2.41898498 L18.1972554,2.41898498 L18.599762,2.41898498 C18.5358721,2.8709448 18.4647945,3.27970847 18.4216688,3.69167185 L18.4216688,3.69167185 C18.236388,5.46591414 18.5989634,7.1257666 19.5038046,8.66243001 L19.5038046,8.66243001 C19.6451611,8.9032086 19.6427652,9.07039374 19.5022074,9.31117234 L19.5022074,9.31117234 C18.4312523,11.1438094 18.1141985,13.1084348 18.5310803,15.1890499 L18.5310803,15.1890499 C18.5462542,15.2634432 18.5606294,15.3386366 18.5718102,15.41303 L18.5718102,15.41303 C18.5758033,15.4378277 18.5678171,15.4634255 18.5598308,15.5322194 L18.5598308,15.5322194 C18.4344468,15.5386188 18.3018752,15.5506177 18.1693036,15.5506177 L18.1693036,15.5506177 C16.4291014,15.5514177 14.6888993,15.5538174 12.9494958,15.5538174 L12.9494958,15.5538174 C11.722809,15.5538174 10.4969209,15.5530175 9.2702341,15.5482179" id="Fill-3" fill="url(#linearGradient-1)"></path>
                <path d="M24.5431233,0.26077682 C23.0017786,2.03101946 22.5904872,4.05963914 23.1439337,6.3090392 L23.1439337,6.3090392 C23.3915072,7.31374989 23.8946405,8.19047196 24.5998256,8.98960092 L24.5998256,8.98960092 C24.5103797,9.10319083 24.4504829,9.18398365 24.386593,9.26077682 L24.386593,9.26077682 C22.342115,11.7365568 22.4084008,15.3602346 24.5566999,17.7536219 L24.5566999,17.7536219 C24.6725005,17.8832104 24.8937194,17.9744023 25.0710139,17.9832015 L25.0710139,17.9832015 C25.296226,17.9952004 25.5230352,17.9992001 25.7490459,18 L25.7490459,18 L25.852867,18 C26.1523511,17.9992001 26.4518352,17.9944005 26.7505206,17.9944005 L26.7505206,17.9944005 C27.0579909,17.9944005 27.3662599,17.9944005 27.7448078,17.9944005 L27.7448078,17.9944005 C26.2441929,16.6913163 25.6955381,15.8721891 25.4040402,14.5179095 L25.4040402,14.5179095 C25.1221259,13.2116256 25.3082053,12.0101324 26.2601654,11.0102213 L26.2601654,11.0102213 C26.3895425,10.8742334 26.6259352,10.7766421 26.8160078,10.7702426 L26.8160078,10.7702426 C27.6042499,10.743845 28.3948879,10.7582437 29.1839286,10.7606435 L29.1839286,10.7606435 C29.3069167,10.7614434 29.4299048,10.7782419 29.5856365,10.7902409 L29.5856365,10.7902409 L29.5856365,12.3796996 C30.083978,12.3796996 30.543187,12.3796996 31,12.3796996 L31,12.3796996 L31,5.62589992 C30.5232214,5.62589992 30.0640124,5.62589992 29.582442,5.62589992 L29.582442,5.62589992 C29.582442,6.08105946 29.5712613,6.5002222 29.5872338,6.91778509 L29.5872338,6.91778509 C29.5960187,7.16896276 29.5073714,7.25055551 29.2582006,7.24575593 L29.2582006,7.24575593 C28.6344751,7.23215714 27.9987703,7.16496311 27.38942,7.2585548 L27.38942,7.2585548 C26.4662104,7.40094214 26.0301616,6.88658786 25.6835587,6.19224958 L25.6835587,6.19224958 C25.5485912,5.92267354 25.4208113,5.63309928 25.3712966,5.33872545 L25.3712966,5.33872545 C25.0797988,3.59728024 25.6204674,2.10701271 26.8040284,0.831126122 L26.8040284,0.831126122 C27.0643799,0.549551151 27.370253,0.307972625 27.701682,0.00559950227 L27.701682,0.00559950227 C26.8064243,0.00559950227 25.9694662,0.0143987201 25.132508,0 L25.132508,0 C25.126119,0 25.1189314,0 25.1125424,0 L25.1125424,0 C24.8721565,0 24.7044454,0.075993245 24.5431233,0.26077682" id="Fill-5" fill="url(#linearGradient-2)"></path>
            </g>
        </g>
    </g>
</svg>