<?xml version="1.0" encoding="UTF-8"?>
<svg width="72px" height="72px" viewBox="0 0 72 72" version="1.1" xmlns="http://www.w3.org/2000/svg" xmlns:xlink="http://www.w3.org/1999/xlink">
    <title>编组 7备份 4</title>
    <defs>
        <filter x="-25.0%" y="-75.0%" width="150.0%" height="250.0%" filterUnits="objectBoundingBox" id="filter-1">
            <feGaussianBlur stdDeviation="4" in="SourceGraphic"></feGaussianBlur>
        </filter>
        <filter x="-10.1%" y="-29.5%" width="120.2%" height="159.1%" filterUnits="objectBoundingBox" id="filter-2">
            <feGaussianBlur stdDeviation="1.28" in="SourceGraphic"></feGaussianBlur>
        </filter>
        <linearGradient x1="0%" y1="50%" x2="100%" y2="53.648288%" id="linearGradient-3">
            <stop stop-color="#F2F2F2" offset="0%"></stop>
            <stop stop-color="#DBDBDB" offset="77.7228359%"></stop>
            <stop stop-color="#F0F0F0" offset="100%"></stop>
        </linearGradient>
        <linearGradient x1="50%" y1="0%" x2="50%" y2="100%" id="linearGradient-4">
            <stop stop-color="#FFFFFF" stop-opacity="0.3" offset="0%"></stop>
            <stop stop-color="#FFFFFF" offset="100%"></stop>
        </linearGradient>
        <linearGradient x1="100%" y1="38.3652988%" x2="-1.03389519e-13%" y2="59.0341608%" id="linearGradient-5">
            <stop stop-color="#E8F3FE" offset="0%"></stop>
            <stop stop-color="#8EC5FE" offset="100%"></stop>
        </linearGradient>
    </defs>
    <g id="页面-1" stroke="none" stroke-width="1" fill="none" fill-rule="evenodd">
        <g id="生态图" transform="translate(-948.000000, -563.000000)">
            <g id="编组-7备份-4" transform="translate(960.000000, 563.000000)">
                <ellipse id="椭圆形" fill="#000000" opacity="0.04" filter="url(#filter-1)" cx="24" cy="52" rx="24" ry="8"></ellipse>
                <ellipse id="椭圆形备份-10" fill="#000000" opacity="0.08" filter="url(#filter-2)" cx="24" cy="50.5" rx="19" ry="6.5"></ellipse>
                <g id="编组-5" transform="translate(0.000000, 23.000000)">
                    <path d="M0,12 L8.49993944,12.0000223 C12.6816314,10.6701507 18.0914733,10 24,10 C29.9085267,10 35.3183686,10.6701507 39.5000606,12.0000223 L48,12 L48,20 C48,26.627417 37.254834,32 24,32 C10.745166,32 0,26.627417 0,20 L0,12 Z" id="形状结合" fill="url(#linearGradient-3)"></path>
                    <ellipse id="椭圆形" fill="#FBFBFB" cx="24" cy="12" rx="24" ry="12"></ellipse>
                    <path d="M0,12 C0,18.627417 10.745166,24 24,24 C37.254834,24 48,18.627417 48,12" id="椭圆形备份-7" stroke="url(#linearGradient-4)" stroke-width="0.5" opacity="0.75"></path>
                </g>
                <path d="M46,27 L46,36 L45.9245093,36.0010204 C44.9918111,41.0401505 35.5321052,45 24,45 C12.4678948,45 3.00818891,41.0401505 2.07549067,36.0010204 L2,36 L2,27 L46,27 Z" id="形状结合" fill="#656565"></path>
                <g id="编组-5备份-4" transform="translate(0.000000, 12.000000)">
                    <path d="M0,12 L8.49993944,12.0000223 C12.6816314,10.6701507 18.0914733,10 24,10 C29.9085267,10 35.3183686,10.6701507 39.5000606,12.0000223 L48,12 L48,20 C48,26.627417 37.254834,32 24,32 C10.745166,32 0,26.627417 0,20 L0,12 Z" id="形状结合" fill="url(#linearGradient-3)"></path>
                    <ellipse id="椭圆形" fill="#FBFBFB" cx="24" cy="12" rx="24" ry="12"></ellipse>
                    <path d="M0,12 C0,18.627417 10.745166,24 24,24 C37.254834,24 48,18.627417 48,12" id="椭圆形备份-7" stroke="url(#linearGradient-4)" stroke-width="0.5" opacity="0.75"></path>
                </g>
                <path d="M46,15 L46,23 L45.996,23 L46,23.1818182 C46,28.5419235 36.3753939,32.8988126 24.4180514,32.9982628 L24,33 C11.8497355,33 2,28.6042503 2,23.1818182 C2,23.1211143 2.00123444,23.0607442 2.00369272,23.000708 L2,15 L46,15 Z" id="形状结合备份-3" fill="#656565"></path>
                <g id="编组-5备份-5">
                    <path d="M0,12 L8.49993944,12.0000223 C12.6816314,10.6701507 18.0914733,10 24,10 C29.9085267,10 35.3183686,10.6701507 39.5000606,12.0000223 L48,12 L48,20 C48,26.627417 37.254834,32 24,32 C10.745166,32 0,26.627417 0,20 L0,12 Z" id="形状结合" fill="url(#linearGradient-3)"></path>
                    <path d="M0,12 C0,18.627417 10.745166,24 24,24 C37.254834,24 48,18.627417 48,12" id="椭圆形备份-7" stroke="url(#linearGradient-4)" stroke-width="0.5" opacity="0.75"></path>
                    <ellipse id="椭圆形" fill="#FBFBFB" cx="24" cy="12" rx="24" ry="12"></ellipse>
                    <ellipse id="椭圆形备份-6" fill="url(#linearGradient-5)" cx="24" cy="12.5" rx="11" ry="5.5"></ellipse>
                </g>
                <path d="M14.0164937,28.5131642 C10.9195945,27.8818965 8.18227304,26.9108229 6,25.6995516 L6,23 C8.1805798,24.2171696 10.9153471,25.1893003 14.0092856,25.824966 C14,26 14,28 14.0164937,28.5131642 Z" id="Fill-1" fill="#1E8CFE"></path>
                <path d="M14.0164937,40.5131642 C10.9195945,39.8818965 8.18227304,38.9108229 6,37.6995516 L6,35 C8.1805798,36.2171696 10.9153471,37.1893003 14.0092856,37.824966 C14,38 14,40 14.0164937,40.5131642 Z" id="Fill-1备份" fill="#1E8CFE"></path>
                <path d="M14.0164937,51.0131642 C10.9195945,50.3818965 8.18227304,49.4108229 6,48.1995516 L6,45.5 C8.1805798,46.7171696 10.9153471,47.6893003 14.0092856,48.324966 C14,48.5 14,50.5 14.0164937,51.0131642 Z" id="Fill-1备份-2" fill="#1E8CFE"></path>
            </g>
        </g>
    </g>
</svg>