<?xml version="1.0" encoding="UTF-8"?>
<svg width="23px" height="27px" viewBox="0 0 23 27" version="1.1" xmlns="http://www.w3.org/2000/svg" xmlns:xlink="http://www.w3.org/1999/xlink">
    <title>Dubbo</title>
    <defs>
        <linearGradient x1="0%" y1="50%" x2="100%" y2="50%" id="linearGradient-1">
            <stop stop-color="#9163EA" offset="0%"></stop>
            <stop stop-color="#00DDE5" offset="100%"></stop>
        </linearGradient>
    </defs>
    <g id="页面-1" stroke="none" stroke-width="1" fill="none" fill-rule="evenodd">
        <g id="生态图" transform="translate(-794.000000, -502.000000)">
            <g id="Dubbo" transform="translate(794.000000, 502.000000)">
                <path d="M9.54148472,0 L0,0 L0,27 L9.54148472,27 C16.9744017,27 23,20.9558284 23,13.5 C23,6.04417164 16.9744017,0 9.54148472,0" id="形状结合" fill="url(#linearGradient-1)"></path>
                <path d="M12.6550118,6.0951694 L12.6550118,4.1809903 L9.84278472,4.1809903 L9.13972795,4.1809903 C7.58657511,4.1809903 6.32750087,5.44394552 6.32750087,7.00188582 L6.32750087,19.8974082 C6.32750087,21.4553485 7.58657511,22.7183037 9.13972795,22.7183037 L9.84278472,22.7183037 L12.6550118,22.7183037 L12.6550118,22.1138261 C12.6550118,21.334856 12.0254747,20.7033784 11.2488983,20.7033784 C10.4723218,20.7033784 9.84278472,20.0718 9.84278472,19.2929306 L9.84278472,7.50561716 C9.84278472,6.72664701 10.4723218,6.0951694 11.2488983,6.0951694 L12.6550118,6.0951694 Z" id="形状结合" fill="#FFFFFF"></path>
            </g>
        </g>
    </g>
</svg>