<?xml version="1.0" encoding="UTF-8"?>
<svg width="28px" height="25px" viewBox="0 0 28 25" version="1.1" xmlns="http://www.w3.org/2000/svg" xmlns:xlink="http://www.w3.org/1999/xlink">
    <title>Higress</title>
    <defs>
        <linearGradient x1="-0.00113384165%" y1="49.9998053%" x2="99.9973089%" y2="49.9998053%" id="linearGradient-1">
            <stop stop-color="#0417FF" offset="0%"></stop>
            <stop stop-color="#1D8CFD" offset="100%"></stop>
        </linearGradient>
        <linearGradient x1="100.00112%" y1="50.0004997%" x2="0.000428906968%" y2="50.0004997%" id="linearGradient-2">
            <stop stop-color="#0417FF" offset="0%"></stop>
            <stop stop-color="#1D8CFD" offset="100%"></stop>
        </linearGradient>
    </defs>
    <g id="页面-1" stroke="none" stroke-width="1" fill="none" fill-rule="evenodd">
        <g id="生态图" transform="translate(-502.000000, -333.000000)">
            <g id="Higress" transform="translate(502.000000, 333.000000)">
                <path d="M0.026358314,0 L0.026358314,7.46156615 C0.026358314,8.47941274 0.196442265,9.46462109 0.503251161,10.3784916 L0.503251161,10.3784916 C0.600978956,10.6577816 0.705284584,10.9230838 0.822745876,11.1888523 L0.822745876,11.1888523 C1.48287834,12.6412536 2.50855034,13.8987581 3.78887843,14.8387392 L3.78887843,14.8387392 C4.01769303,15.0070592 4.25919344,15.1627902 4.50727169,15.3119935 L4.50727169,15.3119935 C5.89895308,16.1419371 7.52508722,16.6217192 9.25646666,16.6217192 L9.25646666,16.6217192 L12.6727109,16.6217192 C13.0711396,16.6217192 13.4568825,16.5825533 13.8294697,16.5046878 L13.8294697,16.5046878 C13.3586848,14.4237673 11.4905804,12.8678562 9.25646666,12.8552672 L9.25646666,12.8552672 L9.23015533,12.8552672 C8.25663614,12.8487395 7.34231744,12.5890324 6.55203787,12.1418887 L6.55203787,12.1418887 C5.26513195,11.4093935 4.30476843,10.1584167 3.95896238,8.68643238 L3.95896238,8.68643238 C3.89976189,8.45330215 3.86076474,8.22017192 3.84150109,7.97352014 L3.84150109,7.97352014 C3.82129775,7.80520011 3.81518976,7.63688008 3.81518976,7.46156615 L3.81518976,7.46156615 L3.81518976,0 L0.026358314,0 Z" id="Fill-1" fill="url(#linearGradient-1)"></path>
                <path d="M3.78883144,15.6943737 L3.78883144,25 L0,25 L0,14.1515179 L0,10.8294121 C0.120750208,11.2835498 0.321374096,11.7936387 0.424740033,11.9927319 C1.20186394,13.4936244 2.37130857,14.7674479 3.78883144,15.6943737" id="Fill-3" fill="#1E8CFE"></path>
                <path d="M5.81391111,8.3819643 C5.41501256,8.3819643 5.03020937,8.42113018 4.65762215,8.49852941 L4.65762215,8.49852941 C5.12793716,10.5733885 7.00261939,12.1288334 9.23015533,12.1418887 L9.23015533,12.1418887 L9.25646666,12.1418887 C10.229516,12.1484163 11.1443046,12.4081234 11.941162,12.8552672 L11.941162,12.8552672 C13.2280679,13.59429 14.1813837,14.8387392 14.5276596,16.3167848 L14.5276596,16.3167848 C14.5868601,16.5433874 14.6258573,16.7835115 14.6460606,17.0236357 L14.6460606,17.0236357 C14.6653243,17.1919557 14.6714322,17.3668034 14.6714322,17.541651 L14.6714322,17.541651 L14.6714322,24.9999534 L18.4602637,24.9999534 L18.4602637,17.541651 C18.4602637,16.5242707 18.2906496,15.5385961 17.9772628,14.618198 L17.9772628,14.618198 C17.885643,14.3463681 17.7808676,14.074072 17.6568284,13.8143649 L17.6568284,13.8143649 C17.0037437,12.3559022 15.9780717,11.1049254 14.6977436,10.1649443 L14.6977436,10.1649443 C14.468929,9.99615801 14.2274286,9.83436563 13.9793503,9.69168993 L13.9793503,9.69168993 C12.5876689,8.86221257 10.9615348,8.3819643 9.23015533,8.3819643 L9.23015533,8.3819643 L5.81391111,8.3819643 Z" id="Fill-5" fill="url(#linearGradient-2)"></path>
                <path d="M23.6497036,24.9999534 L27.569152,24.9999534 L27.569152,9.22822704 L23.6497036,9.22822704 L23.6497036,24.9999534 Z M23.2193254,3.31790944 C23.2193254,2.68099765 23.4528385,2.1308103 23.9208042,1.66594863 C24.3878303,1.20201947 24.9488255,0.969821758 25.6014404,0.969821758 C26.2648618,0.969821758 26.8305554,1.20201947 27.2980513,1.66594863 C27.766487,2.12008631 28,2.67586878 28,3.33422855 C28,3.99258832 27.766487,4.55396592 27.2980513,5.01836134 C26.8413618,5.48275676 26.2813064,5.7144882 25.617885,5.7144882 C24.9544636,5.7144882 24.3878303,5.48275676 23.9208042,5.01836134 C23.4528385,4.55396592 23.2193254,3.98745946 23.2193254,3.31790944 L23.2193254,3.31790944 Z" id="Fill-11" fill="#0418FF"></path>
                <path d="M14.6716202,9.30581278 L14.6716202,0.000186504184 L18.4604516,0.000186504184 L18.4604516,10.8486686 L18.4604516,14.1707744 C18.3397014,13.7166367 18.1390775,13.2065478 18.0357116,13.0074546 C17.2585877,11.5065621 16.0891431,10.2327386 14.6716202,9.30581278" id="Fill-16" fill="#1E8CFE"></path>
            </g>
        </g>
    </g>
</svg>