<?xml version="1.0" encoding="UTF-8"?>
<svg width="28px" height="32px" viewBox="0 0 28 32" version="1.1" xmlns="http://www.w3.org/2000/svg" xmlns:xlink="http://www.w3.org/1999/xlink">
    <title>KubeVela</title>
    <g id="页面-1" stroke="none" stroke-width="1" fill="none" fill-rule="evenodd">
        <g id="生态图" transform="translate(-503.000000, -540.000000)" fill-rule="nonzero">
            <g id="KubeVela" transform="translate(503.000000, 540.000000)">
                <path d="M4.2429311,29.8662904 C4.9978402,31.1854308 6.38901664,31.9982518 7.8948626,32 C8.61189406,31.9940668 9.31509061,31.7995497 9.93548387,31.4355265 C10.60084,31.0519156 11.4166829,31.0519156 12.082039,31.4355265 C13.3078028,32.130939 14.7961427,32.1584901 16.0461967,31.5089081 C16.6954973,31.163633 17.4709702,31.163633 18.1202708,31.5089081 C20.126912,32.5459512 22.584314,31.7995718 23.6957387,29.8154877 L4.2429311,29.8662904 Z" id="路径" fill="#000000"></path>
                <path d="M25.914775,22.4999118 L25.8645958,21.6701358 C25.3572282,13.4739813 22.3409,5.77456342 17.3731581,0 L17.3731581,0 L17.3731581,22.1047804 L25.914775,22.4999118 Z" id="路径" fill="#006FFF"></path>
                <path d="M16.2078853,22.048333 L16.2078853,4.62868231 C11.6385156,9.21162892 8.70926555,15.2064755 7.88371167,21.6644911 L16.2078853,22.048333 Z" id="路径" fill="#006FFF"></path>
                <path d="M8.56391876,23.2788852 L7.8948626,21.6701358 L0,21.3032281 L2.16885703,26.513318 L2.16885703,26.513318 C3.17751702,28.2746754 5.39054204,28.8987124 7.15332537,27.9188569 C7.9630421,27.4560772 8.95292763,27.4560772 9.76264436,27.9188569 C10.8718751,28.5364826 12.2161376,28.5364826 13.3253684,27.9188569 C14.1350851,27.4560772 15.1249706,27.4560772 15.9346874,27.9188569 C17.0439181,28.5364826 18.3881806,28.5364826 19.4974114,27.9188569 C20.3071281,27.4560772 21.2970137,27.4560772 22.1067304,27.9188569 C23.8717233,28.9094692 26.0952717,28.2838643 27.1023497,26.513318 L28,24.6787793 L9.32775787,23.8151349 C8.99132889,23.8034337 8.69268794,23.5937741 8.56391876,23.2788852 L8.56391876,23.2788852 Z" id="路径" fill="#000000"></path>
            </g>
        </g>
    </g>
</svg>