<?xml version="1.0" encoding="UTF-8"?>
<svg width="28px" height="27px" viewBox="0 0 28 27" version="1.1" xmlns="http://www.w3.org/2000/svg" xmlns:xlink="http://www.w3.org/1999/xlink">
    <title>Kubernetes</title>
    <g id="页面-1" stroke="none" stroke-width="1" fill="none" fill-rule="evenodd">
        <g id="生态图" transform="translate(-551.000000, -521.000000)" fill="#2F5EF1" fill-rule="nonzero">
            <g id="Kubernetes" transform="translate(551.000000, 521.000000)">
                <path d="M11.9043371,16.224566 L11.9125039,16.2361599 L10.7469841,19.0337842 C9.62854696,18.3222676 8.77760099,17.2639068 8.32610963,16.0228309 L11.3338274,15.5161746 L11.3384942,15.5219716 C11.5245558,15.4879851 11.7143483,15.5584478 11.8324083,15.7053431 C11.9504683,15.8522384 11.9776595,16.0517561 11.9031704,16.224566 L11.9043371,16.224566 Z M10.9324873,13.7562104 C11.1149437,13.7065693 11.255141,13.5612308 11.2973394,13.3779786 C11.3395378,13.1947264 11.2768978,13.0032614 11.134324,12.8797065 L11.1366574,12.8669531 L8.84878519,10.8333713 C8.15084453,11.9623414 7.85118039,13.2901662 7.99710404,14.6072076 L10.9301539,13.7666449 L10.9324873,13.7562104 L10.9324873,13.7562104 Z M12.2683433,11.4606049 C12.4213107,11.5715448 12.6233168,11.5897837 12.7938993,11.5080568 C12.9644818,11.4263299 13.0759319,11.2579126 13.0838572,11.0698882 L13.095524,11.0640912 L13.270527,8.02647188 C11.9455023,8.18039732 10.7098564,8.7686592 9.75880066,9.69832192 L12.2636766,11.4640831 L12.2683433,11.4617643 L12.2683433,11.4606049 Z M13.155025,14.6489458 L13.9985394,15.0535753 L14.840887,14.6512646 L15.0508906,13.7469352 L14.4675473,13.0246311 L13.5295314,13.0246311 L12.9461882,13.7469352 L13.155025,14.6501052 L13.155025,14.6489458 Z M14.9050548,11.060613 C14.9131008,11.2488391 15.0248842,11.4173358 15.1957952,11.4988605 C15.3667063,11.5803852 15.5689189,11.5616649 15.7217353,11.4501703 L15.7310688,11.4536485 L18.2207778,9.69948132 C17.2729993,8.77712114 16.0465468,8.18972335 14.7300518,8.02763126 L14.9027214,11.0594537 L14.9050548,11.060613 L14.9050548,11.060613 Z M27.5939371,17.9822114 L20.858656,26.3078391 C20.5032669,26.7446241 19.9678633,26.9978633 19.4026312,26.9965207 L8.59794757,27 C8.03273287,27.0004248 7.49776168,26.7463345 7.14308952,26.3089985 L0.404308309,17.9845302 C0.0530628012,17.5478954 -0.0787884253,16.9759843 0.0461355728,16.4309386 L2.44950975,6.04854109 C2.57551189,5.50362464 2.9453515,5.04682233 3.45636018,4.80450843 L13.188859,0.181993774 C13.6998039,-0.0606645914 14.2937748,-0.0606645914 14.8047197,0.181993774 L24.5407185,4.80218965 C25.0517272,5.04450355 25.4215668,5.50246526 25.547569,6.0462223 L27.9532766,16.4286198 C28.0792787,16.9735362 27.9474431,17.5451188 27.5939371,17.9822114 Z M23.7567052,15.5973323 C23.7077044,15.5857384 23.6365365,15.567188 23.5875357,15.5579128 C23.3845322,15.5196528 23.2200295,15.5289279 23.0286929,15.5138558 C22.6203526,15.4709581 22.2843469,15.4361762 21.9845085,15.3422651 C21.8620064,15.2958892 21.7745049,15.1509646 21.7325042,15.0918354 L21.4980002,15.023431 C21.6229839,14.1222904 21.5814701,13.2060501 21.3754981,12.3197179 C21.1691893,11.4243618 20.7990335,10.5743146 20.2834795,9.81194278 C20.3441472,9.75745115 20.4584825,9.65774301 20.4899831,9.62759871 C20.4993165,9.52325301 20.4911497,9.41542911 20.5996516,9.30064884 C20.8294888,9.08616046 21.1176604,8.90877276 21.4664996,8.69544376 C21.6321691,8.59805444 21.7850051,8.53660642 21.9506745,8.41486977 C21.9880085,8.38704425 22.0393427,8.34298718 22.0790101,8.31168347 C22.3590148,8.09023871 22.4231826,7.70879717 22.2225125,7.45836749 C22.0218424,7.2079378 21.6321691,7.18474987 21.3533311,7.40619463 C21.3136637,7.43749834 21.2599961,7.47807722 21.2238288,7.50822155 C21.0674929,7.64271156 20.9706579,7.77488279 20.8388223,7.91401039 C20.5518174,8.20385957 20.3138134,8.44501407 20.0536423,8.62008298 C19.9404737,8.68500919 19.7748042,8.66298067 19.7001363,8.65834307 L19.4784659,8.81486163 C18.2023753,7.48410446 16.4835698,6.65891008 14.6413836,6.49259004 L14.6273834,6.23404457 C14.5515488,6.16216198 14.4605472,6.10071394 14.4372135,5.94419538 C14.4115464,5.63347706 14.4547138,5.29841143 14.5037146,4.89494137 C14.5305484,4.7059597 14.5748825,4.54944115 14.5830493,4.34422793 C14.584216,4.29785205 14.5818826,4.22944766 14.5818826,4.17959362 C14.5818826,3.82481823 14.3205449,3.53612845 13.9985394,3.53612845 C13.6777006,3.53612845 13.4163628,3.82481823 13.4163628,4.17959362 L13.4175295,4.19582516 C13.4175295,4.24336042 13.4151961,4.30248965 13.4175295,4.34422793 C13.4245296,4.54944115 13.4688637,4.7059597 13.4956975,4.89494137 C13.5446983,5.29841143 13.586699,5.63347708 13.5610319,5.94535479 C13.5279245,6.06088966 13.4623617,6.16465206 13.3720287,6.24447914 L13.3580285,6.48911185 C11.5040496,6.63706151 9.7716609,7.46478429 8.49761254,8.81138344 C8.42695782,8.76283555 8.35695054,8.71336366 8.28760898,8.66298067 C8.18260719,8.67689343 8.07760541,8.70935655 7.94110309,8.62935815 C7.68093199,8.45544864 7.44292794,8.21429412 7.15592306,7.92444496 C7.0240875,7.78531736 6.9284192,7.65314613 6.77208322,7.5198155 C6.72982417,7.48468319 6.68664182,7.45066245 6.64258102,7.41778861 C6.527238,7.32486947 6.38491312,7.27122149 6.23657411,7.26474825 C6.05791059,7.25531855 5.88543052,7.33111457 5.7722329,7.46880206 C5.57156281,7.71923174 5.63573058,8.10183266 5.91573534,8.32327742 L5.92390212,8.32907442 L6.04523754,8.42530434 C6.21090703,8.54704099 6.36257626,8.60964841 6.52824575,8.70587833 C6.877085,8.92036671 7.16525657,9.09775441 7.39509381,9.31108341 C7.48376199,9.40615395 7.50009559,9.57310707 7.51176246,9.64498966 L7.69843229,9.81078341 C6.66748323,11.3469682 6.24370319,13.2073813 6.50841206,15.035025 L6.26574129,15.1045888 C6.20157352,15.1880653 6.11057197,15.3179178 6.01490367,15.3561778 C5.71506525,15.450089 5.37789284,15.4837114 4.97071927,15.5266091 C4.7793827,15.5428407 4.6148799,15.5335655 4.41070976,15.5718256 C4.36754235,15.5799414 4.30570797,15.5950135 4.25554044,15.6066075 L4.25087369,15.6089263 L4.2427069,15.6112451 C3.89853438,15.6935623 3.67803063,16.0077588 3.74919851,16.3161583 C3.8203664,16.6257172 4.15637211,16.8135395 4.5017113,16.7393381 L4.50987809,16.7381787 L4.52154496,16.7347005 L4.67204752,16.701078 C4.87038422,16.6477458 5.01505335,16.5700662 5.19472308,16.5016618 C5.57972963,16.364853 5.89940174,16.2500727 6.20974033,16.2048562 C6.34040923,16.1944216 6.47807822,16.2848546 6.54574605,16.3219553 L6.798917,16.2790576 C7.36913793,18.0298539 8.5642888,19.5128084 10.1589741,20.4482481 L10.0539723,20.7009966 C10.092473,20.798386 10.1344737,20.9317166 10.1053065,21.0279465 C9.99213795,21.3201145 9.79846801,21.6273546 9.57796423,21.970536 C9.47179575,22.128214 9.36212724,22.25111 9.26529227,22.4331353 C9.24195855,22.476033 9.21279138,22.543278 9.19062432,22.5884945 C9.04128846,22.9073286 9.15095697,23.2736979 9.43912855,23.4116661 C9.72846679,23.5507937 10.0878062,23.4035503 10.2441422,23.0847162 L10.2441422,23.0823975 C10.267476,23.037181 10.2978098,22.9780518 10.3164768,22.9351541 C10.3981448,22.7473318 10.4261453,22.5861757 10.4844796,22.4041504 C10.6384823,22.0192307 10.7236504,21.6157606 10.9359873,21.3641715 C10.9943216,21.2946077 11.0876566,21.269101 11.1868249,21.2424349 L11.3186605,21.0047586 C13.0482434,21.6670391 14.9628888,21.6719929 16.6959186,21.0186713 L16.8195873,21.2412755 C16.9199223,21.2737386 17.0295909,21.2899701 17.1182591,21.420982 C17.2769284,21.689962 17.3854303,22.0087961 17.5172658,22.3948752 C17.5756002,22.5757411 17.6036006,22.7368973 17.6864354,22.9247195 C17.7051024,22.9676172 17.7366029,23.0290652 17.75877,23.0742817 C17.9139393,23.3942752 18.2744454,23.5403592 18.5637836,23.4012315 C18.8519552,23.2644227 18.9616237,22.896894 18.8122879,22.5780599 C18.7889541,22.5328434 18.759787,22.4667578 18.7364532,22.4227007 C18.6396183,22.2418349 18.5299497,22.1200982 18.4237813,21.9612608 C18.2021108,21.6180794 18.0201077,21.3340272 17.9069391,21.0418593 C17.8602717,20.8911377 17.915106,20.798386 17.9512732,20.7009966 C17.9302729,20.6754899 17.8824387,20.5340435 17.8544383,20.4667985 C19.4549795,19.5240989 20.6508662,18.0295027 21.2144954,16.2674636 C21.2891633,16.2790576 21.4198322,16.3022455 21.4629996,16.3115207 C21.5505011,16.2535509 21.6310024,16.1793495 21.7896718,16.1909434 C22.1000104,16.2361599 22.4196825,16.3509402 22.804689,16.487749 C22.9843588,16.5573128 23.1278612,16.6361518 23.3273646,16.6883246 C23.3693653,16.6999186 23.430033,16.7103532 23.4790339,16.7207877 L23.489534,16.7242659 L23.4977008,16.7254253 C23.8442067,16.7996267 24.1790457,16.6118045 24.2502136,16.3022455 C24.3202148,15.993846 24.1008777,15.6796495 23.7567052,15.5973323 L23.7567052,15.5973323 Z M19.1331266,10.8345307 L16.858088,12.8588373 L16.858088,12.8646343 C16.71486,12.9880971 16.6517767,13.1799627 16.6940185,13.3636462 C16.7362603,13.5473297 16.876948,13.6929178 17.0599248,13.7422976 L17.0634248,13.7538916 L20.0104749,14.5979324 C20.0744693,13.9484762 20.0319148,13.2930026 19.8844728,12.6571023 C19.7362125,12.0124059 19.482384,11.3962919 19.1331266,10.8333713 L19.1331266,10.8345307 Z M14.4512137,17.0083181 C14.3593008,16.8359703 14.1759898,16.7313603 13.9798724,16.7393381 C13.7971078,16.7461248 13.6317799,16.84903 13.545865,17.0094775 L13.5435316,17.0094775 L12.0641732,19.6668148 C13.3218573,20.0932119 14.6861163,20.0944347 15.9445724,19.670293 L14.4628806,17.0083181 L14.4512137,17.0083181 L14.4512137,17.0083181 Z M16.6539179,15.5092182 C16.5471167,15.4896691 16.4368283,15.5042824 16.3389125,15.5509565 C16.0897248,15.6692836 15.9794022,15.9623222 16.0892416,16.2141314 L16.0857415,16.218769 L17.2640949,19.0453781 C18.3900267,18.3310684 19.2443196,17.2642652 19.6919695,16.0135558 L16.6585846,15.5034212 L16.6539179,15.5092182 Z" id="形状"></path>
            </g>
        </g>
    </g>
</svg>