<?xml version="1.0" encoding="UTF-8"?>
<svg width="54px" height="53px" viewBox="0 0 54 53" version="1.1" xmlns="http://www.w3.org/2000/svg" xmlns:xlink="http://www.w3.org/1999/xlink">
    <title>IoT/PC/Moblie</title>
    <defs>
        <linearGradient x1="100%" y1="50%" x2="32.1712375%" y2="50%" id="linearGradient-1">
            <stop stop-color="#E8E8E8" offset="0%"></stop>
            <stop stop-color="#E6E6E6" offset="22.5652731%"></stop>
            <stop stop-color="#F7F7F7" offset="100%"></stop>
        </linearGradient>
        <polygon id="path-2" points="1 36 25 48 49 36 25 24"></polygon>
        <filter x="-11.5%" y="-14.6%" width="122.9%" height="145.8%" filterUnits="objectBoundingBox" id="filter-3">
            <feOffset dx="0" dy="2" in="SourceAlpha" result="shadowOffsetOuter1"></feOffset>
            <feGaussianBlur stdDeviation="1.5" in="shadowOffsetOuter1" result="shadowBlurOuter1"></feGaussianBlur>
            <feColorMatrix values="0 0 0 0 0   0 0 0 0 0   0 0 0 0 0  0 0 0 0.08 0" type="matrix" in="shadowBlurOuter1" result="shadowMatrixOuter1"></feColorMatrix>
            <feOffset dx="0" dy="0.5" in="SourceAlpha" result="shadowOffsetOuter2"></feOffset>
            <feColorMatrix values="0 0 0 0 0.117647059   0 0 0 0 0.549019608   0 0 0 0 0.996078431  0 0 0 1 0" type="matrix" in="shadowOffsetOuter2" result="shadowMatrixOuter2"></feColorMatrix>
            <feMerge>
                <feMergeNode in="shadowMatrixOuter1"></feMergeNode>
                <feMergeNode in="shadowMatrixOuter2"></feMergeNode>
            </feMerge>
        </filter>
        <linearGradient x1="80.3304331%" y1="62.5%" x2="4.27435864e-13%" y2="37.5%" id="linearGradient-4">
            <stop stop-color="#40C0FF" stop-opacity="0" offset="0%"></stop>
            <stop stop-color="#1E8CFE" offset="100%"></stop>
        </linearGradient>
        <linearGradient x1="50%" y1="0%" x2="50%" y2="100%" id="linearGradient-5">
            <stop stop-color="#FFFFFF" stop-opacity="0.3" offset="0%"></stop>
            <stop stop-color="#FFFFFF" offset="100%"></stop>
        </linearGradient>
        <linearGradient x1="50%" y1="0%" x2="50%" y2="100%" id="linearGradient-6">
            <stop stop-color="#C1E4FF" stop-opacity="0" offset="0%"></stop>
            <stop stop-color="#8EC5FE" offset="100%"></stop>
        </linearGradient>
        <linearGradient x1="1.00054929%" y1="41.3194444%" x2="50%" y2="58.6805556%" id="linearGradient-7">
            <stop stop-color="#F2F2F2" offset="0%"></stop>
            <stop stop-color="#F0F0F0" offset="100%"></stop>
        </linearGradient>
        <linearGradient x1="50%" y1="0%" x2="50%" y2="100%" id="linearGradient-8">
            <stop stop-color="#B0DFFF" stop-opacity="0" offset="0%"></stop>
            <stop stop-color="#6EB1FF" stop-opacity="0.2" offset="100%"></stop>
        </linearGradient>
    </defs>
    <g id="页面-1" stroke="none" stroke-width="1" fill="none" fill-rule="evenodd">
        <g id="生态图" transform="translate(-333.000000, -259.000000)">
            <g id="IoT/PC/Moblie" transform="translate(335.000000, 259.000000)">
                <g id="路径-12备份-59">
                    <use fill="black" fill-opacity="1" filter="url(#filter-3)" xlink:href="#path-2"></use>
                    <use fill="url(#linearGradient-1)" fill-rule="evenodd" xlink:href="#path-2"></use>
                </g>
                <g id="编组-14" transform="translate(29.000000, 37.500000)" fill="url(#linearGradient-4)">
                    <polygon id="矩形" points="4 6.5 5 6 9 8 8 8.5"></polygon>
                    <polygon id="矩形备份-7" points="0 8.5 1 8 5 10 4 10.5"></polygon>
                    <polygon id="矩形备份-3" points="8 4.5 9 4 13 6 12 6.5"></polygon>
                    <polygon id="矩形备份-5" points="12 2.5 13 2 17 4 16 4.5"></polygon>
                    <polygon id="矩形备份-6" points="16 0.5 17 0 21 2 20 2.5"></polygon>
                </g>
                <g id="编组-10" transform="translate(10.500000, 42.750000) scale(-1, 1) translate(-10.500000, -42.750000) translate(0.000000, 37.500000)" fill="url(#linearGradient-4)">
                    <polygon id="矩形备份-8" points="4 6.5 5 6 9 8 8 8.5"></polygon>
                    <polygon id="矩形备份-9" points="0 8.5 1 8 5 10 4 10.5"></polygon>
                    <polygon id="矩形备份-10" points="8 4.5 9 4 13 6 12 6.5"></polygon>
                    <polygon id="矩形备份-11" points="12 2.5 13 2 17 4 16 4.5"></polygon>
                    <polygon id="矩形备份-12" points="16 0.5 17 0 21 2 20 2.5"></polygon>
                </g>
                <polygon id="路径-12备份-6" stroke="url(#linearGradient-5)" stroke-width="0.5" fill="#FBFBFB" points="1 28 25 40 49 28 25 16"></polygon>
                <polygon id="路径-12备份-60" fill="#FFFFFF" opacity="0.85" points="7 28 25 37 43 28 25 19"></polygon>
                <path d="M25,18.440983 L44.118034,28 L25,37.559017 L5.88196601,28 L25,18.440983 Z" id="路径-12备份-61" stroke="url(#linearGradient-6)" fill="#FFFFFF" opacity="0.85"></path>
                <polygon id="路径-12备份-62" fill="#F5F5F5" points="13 31 7 28 25 19 43 28 37 31 25 25"></polygon>
                <polygon id="矩形" fill="url(#linearGradient-7)" points="1 28 25 40 49 28 49 36 25 48 1 36"></polygon>
                <polygon id="矩形" fill="#F9F9F9" points="25 40 49 28 49 36 25 48"></polygon>
                <polygon id="矩形" fill="#ECECEC" opacity="0.85" points="32 38 44 32 44 37 32 43"></polygon>
                <polygon id="矩形" fill="#1E8CFE" points="33 39 35 38 35 40 33 41"></polygon>
                <polygon id="矩形备份" fill="#1E8CFE" points="37 37 39 36 39 38 37 39"></polygon>
                <polygon id="矩形备份-2" fill="#1E8CFE" points="41 35 43 34 43 36 41 37"></polygon>
                <polygon id="矩形" fill="url(#linearGradient-8)" points="1 -3.51663143e-13 49 -3.51663143e-13 43 28 25 37 7 28"></polygon>
                <circle id="椭圆形" fill-opacity="0.1" fill="#1E8CFE" cx="19" cy="7" r="3"></circle>
                <circle id="椭圆形备份" fill-opacity="0.4" fill="#1E8CFE" cx="30" cy="16" r="3"></circle>
                <circle id="椭圆形备份-2" fill-opacity="0.5" fill="#1E8CFE" cx="22" cy="29" r="3"></circle>
            </g>
        </g>
    </g>
</svg>