<?xml version="1.0" encoding="UTF-8"?>
<svg width="29px" height="14px" viewBox="0 0 29 14" version="1.1" xmlns="http://www.w3.org/2000/svg" xmlns:xlink="http://www.w3.org/1999/xlink">
    <title>Nacos</title>
    <defs>
        <linearGradient x1="19.3279164%" y1="50.0366033%" x2="193.874296%" y2="50.0366033%" id="linearGradient-1">
            <stop stop-color="#4190FF" offset="0%"></stop>
            <stop stop-color="#2EB9FA" offset="51%"></stop>
            <stop stop-color="#1BE1F6" offset="100%"></stop>
        </linearGradient>
        <linearGradient x1="-61.6391032%" y1="50.0005293%" x2="82.4061839%" y2="50.0005293%" id="linearGradient-2">
            <stop stop-color="#4190FF" offset="0%"></stop>
            <stop stop-color="#2EB9FA" offset="51%"></stop>
            <stop stop-color="#1BE1F6" offset="100%"></stop>
        </linearGradient>
    </defs>
    <g id="页面-1" stroke="none" stroke-width="1" fill="none" fill-rule="evenodd">
        <g id="生态图" transform="translate(-998.000000, -411.000000)" fill-rule="nonzero">
            <g id="Nacos" transform="translate(998.000000, 411.000000)">
                <path d="M6.80192606,14 C3.72848425,14.0018949 1.03618526,11.8796952 0.235390248,8.82391258 C-0.565404766,5.76812995 0.724572954,2.53916128 3.38165482,0.948435693 C6.03873668,-0.642289889 9.40173797,-0.198938346 11.5840382,2.02977317 L11.5840382,2.02977317 L13.4172631,3.9227349 L11.510316,5.87643337 L9.69183555,3.98853303 C8.08297537,2.34092345 5.48250805,2.34591266 3.87962029,3.99968427 C2.27673252,5.65345587 2.27673252,8.33148607 3.87962029,9.98525767 C5.48250805,11.6390293 8.08297537,11.6440185 9.69183555,9.9964089 L11.5692938,8.06295601 L13.4762408,10.0166545 L11.6086123,11.9501074 C10.3365255,13.2670741 8.60569292,14.0052069 6.80192606,14 L6.80192606,14 Z" id="路径" fill="url(#linearGradient-1)"></path>
                <path d="M22.2196915,13.999982 C20.4312684,14.003041 18.714805,13.2748612 17.447409,11.9754143 L17.447409,11.9754143 L12.6702117,6.98487888 L17.4080905,2.05508014 C19.5824792,-0.18058905 22.9434606,-0.634588424 25.6041703,0.94795857 C28.26488,2.53050556 29.5626055,5.75542839 28.7688002,8.81224616 C27.9749948,11.8690639 25.2873744,13.9964043 22.2147767,13.999982 L22.2196915,13.999982 Z M19.3396116,10.0217159 C20.1057289,10.8031515 21.1414019,11.2399686 22.2196915,11.2364718 C24.0827272,11.2380444 25.7142271,9.95002336 26.1965539,8.09683518 C26.6788808,6.24364699 25.8916102,4.28798464 24.2775424,3.3298105 C22.6634747,2.37163636 20.6256007,2.65018167 19.3101227,4.00877861 L16.4251281,6.98994027 L19.3396116,10.0217159 Z" id="形状" fill="url(#linearGradient-2)"></path>
            </g>
        </g>
    </g>
</svg>