<?xml version="1.0" encoding="UTF-8"?>
<svg width="22px" height="24px" viewBox="0 0 22 24" version="1.1" xmlns="http://www.w3.org/2000/svg" xmlns:xlink="http://www.w3.org/1999/xlink">
    <title>OpenSergo</title>
    <defs>
        <polygon id="path-1" points="0 0 22 0 22 23.2146125 0 23.2146125"></polygon>
    </defs>
    <g id="页面-1" stroke="none" stroke-width="1" fill="none" fill-rule="evenodd">
        <g id="生态图" transform="translate(-342.000000, -418.000000)">
            <g id="OpenSergo" transform="translate(342.000000, 418.000000)">
                <mask id="mask-2" fill="white">
                    <use xlink:href="#path-1"></use>
                </mask>
                <g id="Clip-17"></g>
                <path d="M14.6889797,9.04180592 L4.22724468,9.04180592 L11.2543349,2.014164 L10.12104,5.12879371 L18.906558,5.12879371 C18.915386,5.12879371 18.9236622,5.12327621 18.926421,5.11499996 L20.7775428,0.0284151338 C20.7830603,0.0146213795 20.772577,-0.000275875085 20.7576798,-0.000275875085 L7.30876939,-0.000275875085 C3.48845121,-0.000275875085 0.186778186,2.92841403 0.00801113106,6.74431821 C-0.182894428,10.8046477 3.06305182,14.1708755 7.08200007,14.1708755 L13.3024315,14.1714273 L17.7727114,14.1708755 L10.7450694,21.1990692 L11.8778125,18.085543 L3.08898408,18.085543 C3.08015608,18.085543 3.07187983,18.0910605 3.06856933,18.0998885 L1.2174475,23.1864733 C1.21248175,23.200267 1.22241326,23.2146125 1.23731051,23.2146125 L14.9174042,23.2146125 C18.9369042,23.2146125 22.1834022,19.847833 21.9919449,15.7875035 C21.8120744,11.9704958 18.5098496,9.04180592 14.6889797,9.04180592" id="Fill-16" fill="#5A81FF" mask="url(#mask-2)"></path>
            </g>
        </g>
    </g>
</svg>