<?xml version="1.0" encoding="UTF-8"?>
<svg width="25px" height="27px" viewBox="0 0 25 27" version="1.1" xmlns="http://www.w3.org/2000/svg" xmlns:xlink="http://www.w3.org/1999/xlink">
    <title>RocketMQ</title>
    <defs>
        <polygon id="path-1" points="0 0 25 0 25 27 0 27"></polygon>
    </defs>
    <g id="页面-1" stroke="none" stroke-width="1" fill="none" fill-rule="evenodd">
        <g id="生态图" transform="translate(-769.000000, -281.000000)">
            <g id="RocketMQ" transform="translate(769.000000, 281.000000)">
                <g id="编组">
                    <mask id="mask-2" fill="white">
                        <use xlink:href="#path-1"></use>
                    </mask>
                    <g id="Clip-7"></g>
                    <path d="M16.3781143,9.67699115 C15.5467555,10.290333 14.7335764,10.8289561 13.9757531,11.2645118 C14.8765619,10.8514324 16.2596405,10.1971876 17.1808759,9.66889156 C17.0295155,10.1265187 16.8581371,10.6021674 16.7192369,10.8552797 C16.7192369,10.8552797 14.239255,12.4612269 13.5079861,12.8639793 C12.7767173,13.2651117 11.2304309,13.8138593 11.2304309,13.8138593 C11.2304309,13.8138593 11.8454729,12.6839658 11.9721173,12.2162142 C11.7474257,12.2951852 11.5347858,12.3577546 11.3366487,12.4002775 C10.9773465,12.3255587 10.6076268,12.1088946 10.319613,11.7664842 C10.0295567,11.4265037 9.87840054,11.0275986 9.86594038,10.6631168 C9.94376536,10.4788511 10.043651,10.2802085 10.1580394,10.0758962 C9.6741355,10.1184191 8.44425567,10.5213739 8.44425567,10.5213739 C8.44425567,10.5213739 9.25743481,9.10779211 9.78443862,8.4640768 C10.3091955,7.82015899 12.3355048,5.67558872 12.3355048,5.67558872 C12.803476,5.52372131 13.9226442,5.38420579 14.484373,5.32123144 C17.7709976,2.74373781 19.7934258,3.55167242 19.9586762,3.7480876 C20.142719,3.96475176 20.6736039,6.5080246 16.3781143,9.67699115 M24.979511,6.74676016 C25.236885,3.35728214 23.0941447,0 17.1541172,0 L4.31401646,0 L1.03025161,0 L3.6078722,4.42561872 L-6.12795134e-05,27 C2.26523807,21.5833958 4.31401646,16.1647668 9.31667167,11.440678 C9.28194661,12.1068697 9.91108295,12.8702565 10.6423518,13.0057222 C8.78149725,16.1667917 9.01619779,19.5461452 10.3153235,22.0329234 C10.6198827,21.8871306 10.9303655,21.7372881 11.2508574,21.5833958 C11.8842833,21.2776361 12.4866609,20.9739013 13.0667736,20.6679391 L16.7539619,27 L23.7357412,27 L18.1876983,17.4748763 C22.9960974,13.8644818 24.7141707,10.229586 24.979511,6.74676016" id="Fill-6" fill="#2E3033" mask="url(#mask-2)"></path>
                </g>
                <path d="M11.0895493,9.72957777 C14.2515722,4.85362157 17.3543582,3.8290228 19.3622836,3.91406855 C17.2889934,4.6369574 14.958125,5.60870631 11.0895493,9.72957777 M19.9587375,3.74802685 C19.7932828,3.55161167 17.7710589,2.74367707 14.4844343,5.32117069 C13.9227054,5.38414504 12.8035373,5.52366057 12.335566,5.67552797 C12.335566,5.67552797 10.3092568,7.82009825 9.78429564,8.46401605 C9.25729182,9.10793385 8.44431695,10.5213132 8.44431695,10.5213132 C8.44431695,10.5213132 9.67399251,10.1183583 10.1578964,10.0758355 C10.0437122,10.2803502 9.94382664,10.4787903 9.86600166,10.6630561 C9.87825756,11.0275379 10.029618,11.4264429 10.3194701,11.7666259 C10.607688,12.1088338 10.9772035,12.325498 11.33671,12.4002167 C11.5348471,12.3576939 11.747487,12.2951245 11.9719743,12.2161534 C11.8453299,12.6839051 11.2302879,13.8137986 11.2302879,13.8137986 C11.2302879,13.8137986 12.7767785,13.265051 13.5080474,12.8639186 C14.2393163,12.4611662 16.7192982,10.8554215 16.7192982,10.8554215 C16.8579941,10.6023091 17.0295768,10.1264579 17.1807329,9.66883081 C16.2597018,10.1973294 14.8766232,10.8513717 13.9758144,11.264451 C14.7336377,10.8290978 15.5466125,10.2904747 16.3781755,9.6769304 C20.6736652,6.50796385 20.1425761,3.96469102 19.9587375,3.74802685" id="Fill-8" fill="#FF6A00"></path>
                <path d="M19.3622836,3.91412929 C17.2889934,4.63681566 14.958125,5.60876706 11.0895493,9.72963852 C14.2515722,4.85368232 17.3543582,3.82908355 19.3622836,3.91412929" id="Fill-10" fill="#FFFFFF"></path>
                <path d="M9.44266235,12.9727771 C6.532294,17.4380838 6.66077671,22.2674674 7.12956499,26.9998583 L2.92374772,26.9998583 C3.64459906,22.2522806 5.60268378,16.5088578 9.44266235,12.9727771" id="Fill-12" fill="#FF6A00"></path>
            </g>
        </g>
    </g>
</svg>