<?xml version="1.0" encoding="UTF-8"?>
<svg width="22px" height="33px" viewBox="0 0 22 33" version="1.1" xmlns="http://www.w3.org/2000/svg" xmlns:xlink="http://www.w3.org/1999/xlink">
    <title>Sentinel</title>
    <g id="页面-1" stroke="none" stroke-width="1" fill="none" fill-rule="evenodd">
        <g id="生态图" transform="translate(-274.000000, -443.000000)">
            <g id="Sentinel" transform="translate(274.000000, 443.000000)">
                <polygon id="Fill-1" fill="#20E8D9" points="10.9999914 0 7.90624382 1.76793952 7.90624382 5.13519884 3.09374758 7.82915783 3.09374758 4.46173014 0 6.22966966 0 12.9643567 10.9999914 6.73468701"></polygon>
                <path d="M11.0000172,8.16584167 L1.71874854e-05,14.3954271 L1.71874854e-05,24.8275415 C1.71874854e-05,26.0299357 0.654430739,27.1409907 1.7170471,27.7428191 L11.0000172,33 L11.0000172,8.16584167 Z" id="Fill-2" fill="#20E8D9"></path>
                <polygon id="Fill-4" fill="#1E66E2" points="11.0000086 3.36734347e-05 14.0937562 1.76788901 14.0937562 5.13523252 18.9062524 7.82910732 18.9062524 4.46176381 22 6.22961915 22 12.9643062 11.0000086 6.73472068"></polygon>
                <path d="M11.0000086,8.16584167 L22.0000086,14.3954271 L22.0000086,24.8275415 C22.0000086,26.0299357 21.3455864,27.1409907 20.2829701,27.7428191 L11.0000086,33 L11.0000086,8.16584167 Z" id="Fill-6" fill="#1E66E2"></path>
                <polygon id="Fill-8" fill="#000000" points="11.0000086 6.73472068 0.00173593614 12.9626225 0.92788365 13.8699532 11.0000086 8.16584167 21.0722195 13.8699532 21.9983672 12.9626225"></polygon>
                <polygon id="Fill-10" fill="#FFFFFF" points="2.9218899 23.4872546 11.0000086 28.1173519 11.0000086 29.6326565 2.9218899 25.0025592"></polygon>
                <polygon id="Fill-12" fill="#FFFFFF" points="11.0000086 13.1326733 11.0000086 11.6173688 4.29688883 15.3196788 2.9218899 16.0790989 2.9218899 17.5944035 2.9218899 20.2882783 2.9218899 21.8035829 4.29688883 21.0154561 11.0000086 17.1734855 11.0000086 15.658181 4.29688883 19.5001515 4.29688883 16.8349833"></polygon>
                <polygon id="Fill-14" fill="#000000" points="19.0781617 17.5944035 11.000043 13.1326733 11.000043 11.6173688 19.0781617 16.0790989"></polygon>
                <polygon id="Fill-16" fill="#000000" points="11.0000086 15.658181 11.0000086 17.1734855 17.7031284 21.0154561 17.7031284 24.2753814 11.0000086 28.1173519 11.0000086 29.6326565 19.0781273 25.0025592 19.0781273 23.4872546 19.0781273 21.8035829 19.0781273 20.2882783"></polygon>
            </g>
        </g>
    </g>
</svg>