<?xml version="1.0" encoding="UTF-8"?>
<svg width="28px" height="28px" viewBox="0 0 28 28" version="1.1" xmlns="http://www.w3.org/2000/svg" xmlns:xlink="http://www.w3.org/1999/xlink">
    <title>编组备份 12</title>
    <defs>
        <polygon id="path-1" points="0 0 28 0 28 28 0 28"></polygon>
    </defs>
    <g id="页面-1" stroke="none" stroke-width="1" fill="none" fill-rule="evenodd">
        <g id="生态图" transform="translate(-838.000000, -477.000000)">
            <g id="编组备份-12" transform="translate(838.000000, 477.000000)">
                <g id="编组">
                    <mask id="mask-2" fill="white">
                        <use xlink:href="#path-1"></use>
                    </mask>
                    <g id="Clip-2"></g>
                    <path d="M25.4080971,20.2128308 C21.9793596,24.8027589 14.6032521,23.2439154 9.90674621,23.4748552 C9.90674621,23.4748552 9.07117154,23.5325901 8.23559687,23.64806 C8.23559687,23.64806 8.55253898,23.5037226 8.95591986,23.3593853 C12.2694056,22.2046864 13.8253033,21.9737466 15.8422077,20.9345176 C19.6167002,19.000397 23.3911927,14.7568786 24.1403286,10.3690228 C22.6996826,14.5836737 18.3201188,18.2209752 14.3439359,19.6932163 C11.6067085,20.7035778 6.6796992,21.6850719 6.6796992,21.6850719 L6.47800876,21.569602 C3.13571006,19.9241561 3.02045838,12.6495531 9.12879738,10.3112879 C11.8083989,9.27205886 14.3439359,9.8494083 17.2540408,9.15658897 C20.3370232,8.43490216 23.9098252,6.12550439 25.3504712,3.09441981 C26.9639947,7.97302261 28.9232733,15.5363003 25.4080971,20.2128308 M6.50682168,24.3986143 C6.1034408,24.9182288 5.35430489,24.9759637 4.83567233,24.5718191 C4.31703977,24.1676745 4.25941393,23.4171202 4.66279481,22.8975057 C5.06617569,22.3778912 5.8153116,22.3201563 6.33394416,22.7243009 C6.8237638,23.1284455 6.91020256,23.8789998 6.50682168,24.3986143 M25.4945358,1.6510462 C25.1199679,2.57480531 24.6013353,3.46969695 23.996264,4.27798617 C18.6370609,-1.29343596 9.79149454,-1.43777332 4.25941393,3.9315765 C-1.27266667,9.30092633 -1.44554419,18.1632403 3.9136589,23.7057949 C4.08653642,23.9078672 4.28822685,24.0810721 4.48991729,24.2542769 L5.00854985,24.7161565 C10.8863855,29.6813617 19.7031389,28.9308074 24.6589612,23.0418431 C26.5606139,20.7901803 27.7131307,17.961168 27.9148211,15.0166858 C28.318202,11.5237217 27.2521239,7.02039603 25.4945358,1.6510462" id="Fill-1" fill="#6DB33F" mask="url(#mask-2)"></path>
                </g>
                <path d="M25.4080971,20.2128308 C21.9793596,24.8027589 14.6032521,23.2439154 9.90674621,23.4748552 C9.90674621,23.4748552 9.07117154,23.5325901 8.23559687,23.64806 C8.23559687,23.64806 8.55253898,23.5037226 8.95591986,23.3593853 C12.2694056,22.2046864 13.8253033,21.9737466 15.8422077,20.9345176 C19.6167002,19.000397 23.3911927,14.7568786 24.1403286,10.3690228 C22.6996826,14.5836737 18.3201188,18.2209752 14.3439359,19.6932163 C11.6067085,20.7035778 6.6796992,21.6850719 6.6796992,21.6850719 L6.47800876,21.569602 C3.13571006,19.9241561 3.02045838,12.6495531 9.12879738,10.3112879 C11.8083989,9.27205886 14.3439359,9.8494083 17.2540408,9.15658897 C20.3370232,8.43490216 23.9098252,6.12550439 25.3504712,3.09441981 C26.9639947,7.97302261 28.9232733,15.5363003 25.4080971,20.2128308" id="Fill-21" fill="#FFFFFF"></path>
                <path d="M6.50682168,24.3986143 C6.1034408,24.9182288 5.35430489,24.9759637 4.83567233,24.5718191 C4.31703977,24.1676745 4.25941393,23.4171202 4.66279481,22.8975057 C5.06617569,22.3778912 5.8153116,22.3201563 6.33394416,22.7243009 C6.8237638,23.1284455 6.91020256,23.8789998 6.50682168,24.3986143" id="Fill-23" fill="#FFFFFF"></path>
            </g>
        </g>
    </g>
</svg>